<?xml version="1.0" encoding="utf-8"?>
<!-- Generator: Adobe Illustrator 27.3.1, SVG Export Plug-In . SVG Version: 6.00 Build 0)  -->
<svg version="1.1" id="Ebene_1" xmlns="http://www.w3.org/2000/svg" xmlns:xlink="http://www.w3.org/1999/xlink" x="0px" y="0px"
	 viewBox="0 0 697.3 132" style="enable-background:new 0 0 697.3 132;" xml:space="preserve">
<style type="text/css">
	.st0{fill:#D2FF00;}
</style>
<path class="st0" d="M678.8,11.2C669.3,3.8,657.4,0,643.1,0c-18.8,0-33.6,6-44.6,17.8c-11,11.9-16.5,27.8-16.5,47.7
	c0,20.1,5.2,36.3,15.5,48.3C607.9,126,622,132,640,132c18.2,0,31.2-5.9,39-17.6l0.7,15.3h17.6V63.1H644v18.8h32.5v2.5
	c0,5.4-1.1,10.1-3.2,14.1c-2.1,4-4.9,7-8.3,9.1c-3.5,2.1-7.1,3.7-10.8,4.7s-7.7,1.5-11.8,1.5c-11.5,0-20.6-4.2-27.3-12.6
	c-6.7-8.4-10.1-20.3-10.1-35.5c0-15.1,3.5-26.8,10.4-35c6.9-8.2,16-12.3,27.2-12.3c8.4,0,15.5,2.1,21.3,6.3s9.7,10.2,11.8,18.1h21.3
	C694.3,29.2,688.3,18.8,678.8,11.2 M561.4,129.7V2.3h-21.6V104l-54-101.8h-29.9v127.4h21.6V27.9l54,101.8H561.4z M433.8,2.3h-22.3
	v127.4h22.3V2.3z M335.2,129.7l32.3-103.2v103.2h21.8V2.3h-34.6l-30.8,101.6L293,2.3h-34.6v127.4h21.8V26.5l32.3,103.2H335.2z
	 M146.2,65.9c0-15,3.5-26.7,10.6-35.1C164,22.5,173,18.3,184,18.3s20.1,4.2,27.2,12.6c7.1,8.4,10.6,20.1,10.6,35.1
	s-3.6,26.7-10.6,35.1c-7.1,8.4-16.1,12.6-27.2,12.6c-11,0-20.1-4.2-27.1-12.6C149.8,92.6,146.2,80.9,146.2,65.9 M244.8,65.9
	c0-19.8-5.5-35.7-16.5-47.8C217.3,6,202.5,0,184,0s-33.3,6-44.3,18.1c-11,12.1-16.5,28-16.5,47.8s5.5,35.8,16.5,47.9
	c11,12.1,25.8,18.2,44.3,18.2s33.3-6.1,44.3-18.2C239.3,101.7,244.8,85.7,244.8,65.9 M92.4,87.4c-1.9,8.6-5.7,15.1-11.5,19.6
	c-5.8,4.5-13.1,6.8-21.9,6.8c-10.5,0-19.2-4.3-25.9-12.8S23,80.6,23,65.6c0-14.9,3.4-26.5,10.2-34.8s15.5-12.5,26-12.5
	c8.4,0,15.6,2.3,21.4,6.9c5.8,4.6,9.6,11.1,11.5,19.5h21.4c-2.6-14.2-8.6-25.2-18-33C86.1,3.9,74.2,0,59.9,0
	c-18.4,0-33,5.9-43.8,17.8C5.4,29.6,0,45.5,0,65.6c0,20.1,5.2,36.3,15.6,48.3C26.1,126,40.5,132,58.9,132c14.8,0,27-3.9,36.6-11.7
	c9.7-7.8,15.8-18.8,18.4-33L92.4,87.4L92.4,87.4z"/>
</svg>
