<?xml version="1.0" encoding="utf-8"?>
<!-- Generator: Adobe Illustrator 27.3.1, SVG Export Plug-In . SVG Version: 6.00 Build 0)  -->
<svg version="1.1" id="Ebene_1" xmlns="http://www.w3.org/2000/svg" xmlns:xlink="http://www.w3.org/1999/xlink" x="0px" y="0px"
	 viewBox="0 0 697.26 330" style="enable-background:new 0 0 697.26 330;" xml:space="preserve">
<style type="text/css">
	.st0{clip-path:url(#SVGID_00000179615037782344130270000010934547205999219632_);fill:#D2FF00;}
	.st1{filter:url(#Adobe_OpacityMaskFilter);}
	
		.st2{clip-path:url(#SVGID_00000179615037782344130270000010934547205999219632_);fill:url(#SVGID_00000021838436768882071520000013977146563587835804_);}
	
		.st3{clip-path:url(#SVGID_00000179615037782344130270000010934547205999219632_);mask:url(#SVGID_00000083787122336120996090000010556369974626149013_);}
	.st4{clip-path:url(#SVGID_00000068636079214900473420000005449556840584875411_);fill:#D2FF00;}
</style>
<g>
	<g>
		<defs>
			<rect id="SVGID_1_" width="697.26" height="330"/>
		</defs>
		<clipPath id="SVGID_00000035489873014197653850000001611543876761644958_">
			<use xlink:href="#SVGID_1_"  style="overflow:visible;"/>
		</clipPath>
		<path style="clip-path:url(#SVGID_00000035489873014197653850000001611543876761644958_);fill:#D2FF00;" d="M624.84,303.81h-23.9
			v23.9h23.9V303.81z M582.66,303.81h-23.9v23.9h23.9V303.81z M540.47,303.81h-23.9v23.9h23.9V303.81z M500.23,327.72V200.29h-21.62
			v101.77l-53.96-101.77h-29.88v127.43h21.62V225.95l53.96,101.77H500.23z M279.11,263.91c0-15,3.54-26.69,10.63-35.07
			c7.09-8.38,16.14-12.57,27.16-12.57c11.01,0,20.07,4.19,27.16,12.57c7.09,8.38,10.63,20.07,10.63,35.07
			c0,15-3.55,26.72-10.63,35.15c-7.09,8.44-16.14,12.66-27.16,12.66c-11.02,0-20.07-4.22-27.16-12.66
			C282.66,290.63,279.11,278.91,279.11,263.91 M377.72,263.91c0-19.8-5.51-35.74-16.52-47.81c-11.02-12.07-25.78-18.1-44.29-18.1
			c-18.52,0-33.28,6.04-44.29,18.1c-11.02,12.07-16.52,28.01-16.52,47.81c0,19.8,5.51,35.77,16.52,47.9
			C283.62,323.94,298.39,330,316.9,330c18.51,0,33.28-6.06,44.29-18.19C372.21,299.68,377.72,283.72,377.72,263.91 M140.96,263.91
			c0-15,3.54-26.69,10.63-35.07c7.09-8.38,16.14-12.57,27.16-12.57c11.01,0,20.07,4.19,27.16,12.57
			c7.09,8.38,10.63,20.07,10.63,35.07c0,15-3.55,26.72-10.63,35.15c-7.09,8.44-16.14,12.66-27.16,12.66
			c-11.02,0-20.07-4.22-27.16-12.66C144.5,290.63,140.96,278.91,140.96,263.91 M239.57,263.91c0-19.8-5.51-35.74-16.52-47.81
			c-11.02-12.07-25.78-18.1-44.29-18.1c-18.52,0-33.28,6.04-44.29,18.1c-11.02,12.07-16.52,28.01-16.52,47.81
			c0,19.8,5.51,35.77,16.52,47.9c11.01,12.13,25.78,18.19,44.29,18.19c18.51,0,33.28-6.06,44.29-18.19
			C234.06,299.68,239.57,283.72,239.57,263.91 M55.72,272.88c17.46,3.28,26.19,9.84,26.19,19.69c0,5.98-2.58,10.66-7.73,14.06
			c-5.16,3.4-11.66,5.1-19.51,5.1c-17.93,0-28.82-8.73-32.69-26.19H0c1.29,13.83,6.74,24.7,16.35,32.61
			C25.95,326.05,38.37,330,53.61,330c13.59,0,25.42-3.46,35.5-10.37c10.08-6.91,15.12-16.4,15.12-28.47
			c0-6.09-1.17-11.42-3.51-15.99c-2.35-4.57-5.71-8.29-10.11-11.16c-4.39-2.87-8.91-5.1-13.53-6.68
			c-4.63-1.58-10.11-3.02-16.43-4.31L45,250.03c-12.66-2.46-18.98-8.09-18.98-16.87c0-5.62,2.58-9.84,7.73-12.65
			c5.16-2.81,10.72-4.22,16.7-4.22c16.52,0,26.36,6.56,29.53,19.69h21.62c-2.46-12.77-8.12-22.29-16.96-28.56
			c-8.85-6.27-19.83-9.4-32.96-9.4c-12.77,0-23.99,3.16-33.66,9.49c-9.67,6.33-14.5,15.12-14.5,26.37c0,10.08,3.37,18.05,10.11,23.9
			c6.74,5.86,15.61,9.9,26.63,12.13L55.72,272.88z"/>
		<path style="clip-path:url(#SVGID_00000035489873014197653850000001611543876761644958_);fill:#D2FF00;" d="M678.8,55.25
			C669.31,47.75,657.42,44,643.12,44c-18.75,0-33.63,5.95-44.64,17.84c-11.02,11.89-16.52,27.8-16.52,47.72
			c0,20.15,5.18,36.27,15.55,48.34c10.37,12.07,24.52,18.1,42.45,18.1c18.16,0,31.17-5.86,39.02-17.58l0.7,15.29h17.58V107.1H644
			v18.81h32.52v2.46c0,5.39-1.06,10.08-3.16,14.06c-2.11,3.99-4.89,7.03-8.35,9.14c-3.46,2.11-7.06,3.66-10.81,4.66
			c-3.75,1-7.68,1.49-11.78,1.49c-11.49,0-20.6-4.22-27.33-12.65c-6.74-8.44-10.11-20.27-10.11-35.51
			c0-15.12,3.46-26.77,10.37-34.98c6.91-8.2,16-12.3,27.24-12.3c8.44,0,15.53,2.11,21.27,6.33c5.74,4.22,9.67,10.25,11.78,18.1
			h21.27C694.33,73.24,688.29,62.75,678.8,55.25 M561.39,173.72V46.28h-21.62v101.77L485.81,46.28h-29.88v127.43h21.62V71.95
			l53.96,101.77H561.39z M433.79,46.28h-22.32v127.43h22.32V46.28z M335.18,173.72l32.34-103.18v103.18h21.79V46.28h-34.62
			l-30.76,101.59L293,46.28h-34.63v127.43h21.79V70.54l32.34,103.18H335.18z M146.24,109.91c0-15,3.54-26.69,10.63-35.07
			c7.09-8.38,16.14-12.57,27.15-12.57c11.01,0,20.07,4.19,27.16,12.57c7.09,8.38,10.63,20.07,10.63,35.07
			c0,15-3.55,26.72-10.63,35.15c-7.09,8.44-16.14,12.65-27.16,12.65c-11.01,0-20.07-4.22-27.15-12.65
			C149.78,136.63,146.24,124.91,146.24,109.91 M244.84,109.91c0-19.8-5.51-35.74-16.52-47.81C217.3,50.04,202.54,44,184.03,44
			c-18.51,0-33.28,6.04-44.29,18.1c-11.01,12.07-16.52,28.01-16.52,47.81c0,19.8,5.51,35.77,16.52,47.9
			c11.01,12.13,25.78,18.19,44.29,18.19c18.51,0,33.28-6.06,44.29-18.19C239.33,145.68,244.84,129.72,244.84,109.91 M92.45,131.36
			c-1.88,8.55-5.71,15.09-11.51,19.6c-5.8,4.51-13.09,6.77-21.88,6.77c-10.55,0-19.19-4.28-25.93-12.83
			c-6.74-8.55-10.11-20.33-10.11-35.33c0-14.88,3.4-26.48,10.19-34.8c6.79-8.32,15.47-12.48,26.01-12.48
			c8.44,0,15.56,2.29,21.36,6.85c5.8,4.57,9.64,11.07,11.51,19.51h21.44c-2.58-14.18-8.58-25.16-18.02-32.96
			C86.09,47.9,74.23,44,59.94,44c-18.4,0-32.99,5.92-43.76,17.75C5.39,73.59,0,89.52,0,109.56c0,20.15,5.21,36.27,15.64,48.34
			C26.07,169.97,40.48,176,58.88,176c14.76,0,26.98-3.89,36.65-11.69c9.67-7.79,15.79-18.78,18.37-32.96H92.45z"/>
		<defs>
			<filter id="Adobe_OpacityMaskFilter" filterUnits="userSpaceOnUse" x="-9" y="-7" width="715.26" height="30">
				<feFlood  style="flood-color:white;flood-opacity:1" result="back"/>
				<feBlend  in="SourceGraphic" in2="back" mode="normal"/>
			</filter>
		</defs>
		
			<mask maskUnits="userSpaceOnUse" x="-9" y="-7" width="715.26" height="30" id="SVGID_00000059272659665569664920000016338563337394226560_">
			<g class="st1">
				
					<linearGradient id="SVGID_00000151514555986605678880000009430304862362883729_" gradientUnits="userSpaceOnUse" x1="-311.4355" y1="565.6308" x2="-310.4355" y2="565.6308" gradientTransform="matrix(715.257 0 0 -715.257 222747.375 404736.375)">
					<stop  offset="0" style="stop-color:#FFFFFF"/>
					<stop  offset="1" style="stop-color:#000000"/>
				</linearGradient>
				
					<rect x="0" style="clip-path:url(#SVGID_00000035489873014197653850000001611543876761644958_);fill:url(#SVGID_00000151514555986605678880000009430304862362883729_);" width="697.26" height="330"/>
			</g>
		</mask>
		
			<g style="clip-path:url(#SVGID_00000035489873014197653850000001611543876761644958_);mask:url(#SVGID_00000059272659665569664920000016338563337394226560_);">
			<g>
				<defs>
					<rect id="SVGID_00000143617272287460644050000013638626402967110842_" x="-9" y="-7" width="715.26" height="30"/>
				</defs>
				<clipPath id="SVGID_00000078724193772369814950000006556836774161529261_">
					<use xlink:href="#SVGID_00000143617272287460644050000013638626402967110842_"  style="overflow:visible;"/>
				</clipPath>
				
					<rect style="clip-path:url(#SVGID_00000078724193772369814950000006556836774161529261_);fill:#D2FF00;" width="697.26" height="22"/>
			</g>
		</g>
	</g>
</g>
</svg>
