<?xml version="1.0" encoding="utf-8"?>
<!-- Generator: Adobe Illustrator 27.3.1, SVG Export Plug-In . SVG Version: 6.00 Build 0)  -->
<svg version="1.1" id="Ebene_1" xmlns="http://www.w3.org/2000/svg" xmlns:xlink="http://www.w3.org/1999/xlink" x="0px" y="0px"
	 viewBox="0 0 818.89 132" style="enable-background:new 0 0 818.89 132;" xml:space="preserve">
<style type="text/css">
	.st0{clip-path:url(#SVGID_00000025434441445714265470000006905450931726664849_);fill:#788278;}
</style>
<g>
	<defs>
		<rect id="SVGID_1_" width="818.89" height="132"/>
	</defs>
	<clipPath id="SVGID_00000072263963721357116520000009741886138162996116_">
		<use xlink:href="#SVGID_1_"  style="overflow:visible;"/>
	</clipPath>
	<path style="clip-path:url(#SVGID_00000072263963721357116520000009741886138162996116_);fill:#788278;" d="M756.49,129.72h22.32
		V20.92h40.08V2.28H716.42v18.63h40.07V129.72z M693.39,87.36c-1.88,8.56-5.71,15.09-11.51,19.6c-5.8,4.51-13.1,6.77-21.88,6.77
		c-10.55,0-19.19-4.28-25.93-12.83c-6.74-8.55-10.11-20.33-10.11-35.33c0-14.88,3.4-26.48,10.2-34.8
		c6.79-8.32,15.47-12.48,26.01-12.48c8.44,0,15.55,2.28,21.35,6.85c5.8,4.57,9.64,11.07,11.51,19.51h21.44
		c-2.58-14.18-8.59-25.16-18.02-32.96C687.03,3.9,675.17,0,660.87,0c-18.4,0-32.99,5.92-43.77,17.75
		c-10.78,11.84-16.17,27.77-16.17,47.81c0,20.15,5.21,36.27,15.64,48.34c10.43,12.07,24.84,18.1,43.24,18.1
		c14.77,0,26.98-3.89,36.65-11.69c9.67-7.79,15.79-18.78,18.37-32.96H693.39z M539.77,28.12l19.33,54.66h-38.49L539.77,28.12z
		 M481.42,129.72h22.85l9.84-28.3h51.67l10.02,28.3h24.43L552.43,2.28h-23.55L481.42,129.72z M430.45,129.72h22.32V20.92h40.07V2.28
		H390.37v18.63h40.07V129.72z M376.66,129.72V2.28h-21.62v101.77L301.08,2.28H271.2v127.43h21.62V27.95l53.96,101.77H376.66z
		 M152.04,65.91c0-15,3.54-26.69,10.63-35.07c7.09-8.38,16.14-12.57,27.16-12.57c11.01,0,20.07,4.19,27.16,12.57
		c7.09,8.38,10.63,20.07,10.63,35.07c0,15-3.55,26.72-10.63,35.15c-7.09,8.44-16.14,12.65-27.16,12.65
		c-11.02,0-20.07-4.22-27.16-12.65C155.58,92.63,152.04,80.91,152.04,65.91 M250.64,65.91c0-19.8-5.51-35.74-16.52-47.81
		C223.1,6.04,208.34,0,189.83,0c-18.52,0-33.28,6.04-44.29,18.1c-11.01,12.07-16.52,28.01-16.52,47.81c0,19.8,5.51,35.77,16.52,47.9
		c11.01,12.13,25.78,18.19,44.29,18.19c18.51,0,33.28-6.06,44.29-18.19C245.13,101.68,250.64,85.72,250.64,65.91 M92.45,87.36
		c-1.88,8.56-5.71,15.09-11.51,19.6c-5.8,4.51-13.09,6.77-21.88,6.77c-10.55,0-19.19-4.28-25.93-12.83
		c-6.74-8.55-10.11-20.33-10.11-35.33c0-14.88,3.4-26.48,10.19-34.8c6.79-8.32,15.47-12.48,26.01-12.48
		c8.44,0,15.56,2.28,21.36,6.85c5.8,4.57,9.64,11.07,11.51,19.51h21.44c-2.58-14.18-8.58-25.16-18.02-32.96
		C86.09,3.9,74.23,0,59.94,0c-18.4,0-32.99,5.92-43.76,17.75C5.39,29.59,0,45.52,0,65.56c0,20.15,5.21,36.27,15.64,48.34
		C26.07,125.97,40.48,132,58.88,132c14.76,0,26.98-3.89,36.65-11.69c9.67-7.79,15.79-18.78,18.37-32.96H92.45z"/>
</g>
</svg>
