<?xml version="1.0" encoding="utf-8"?>
<!-- Generator: Adobe Illustrator 27.3.1, SVG Export Plug-In . SVG Version: 6.00 Build 0)  -->
<svg version="1.1" id="Ebene_1" xmlns="http://www.w3.org/2000/svg" xmlns:xlink="http://www.w3.org/1999/xlink" x="0px" y="0px"
	 viewBox="0 0 585.2 132" style="enable-background:new 0 0 585.2 132;" xml:space="preserve">
<style type="text/css">
	.st0{clip-path:url(#SVGID_00000181779201487802750780000006761368419903518640_);fill:#D2FF00;}
</style>
<g>
	<defs>
		<rect id="SVGID_1_" width="545" height="132"/>
	</defs>
	<clipPath id="SVGID_00000127727842979572058140000001122873673553108880_">
		<use xlink:href="#SVGID_1_"  style="overflow:visible;"/>
	</clipPath>
	<path style="clip-path:url(#SVGID_00000127727842979572058140000001122873673553108880_);fill:#D2FF00;" d="M446.4,65.9
		c0-15,3.5-26.7,10.6-35.1c7.1-8.4,16.1-12.6,27.2-12.6c11,0,20.1,4.2,27.2,12.6c7.1,8.4,10.6,20.1,10.6,35.1
		c0,15-3.5,26.7-10.6,35.2c-7.1,8.4-16.1,12.7-27.2,12.7c-11,0-20.1-4.2-27.2-12.7C450,92.6,446.4,80.9,446.4,65.9 M545,65.9
		c0-19.8-5.5-35.7-16.5-47.8C517.5,6,502.7,0,484.2,0c-18.5,0-33.3,6-44.3,18.1c-11,12.1-16.5,28-16.5,47.8
		c0,19.8,5.5,35.8,16.5,47.9c11,12.1,25.8,18.2,44.3,18.2c18.5,0,33.3-6.1,44.3-18.2C539.5,101.7,545,85.7,545,65.9 M360.8,2.3
		h-22.3v127.4H425v-18.8h-64.2V2.3z M261.5,2.3h-22.3v127.4h86.5v-18.8h-64.2V2.3z M131.1,129.7h90.2v-18.8h-67.8V73.5h64.2V55
		h-64.2V20.9h67.8V2.3h-90.2V129.7z M83.1,2.3V55H22.3V2.3H0v127.4h22.3V73.5h60.8v56.2h22.3V2.3H83.1z"/>
</g>
</svg>
