<?xml version="1.0" encoding="utf-8"?>
<!-- Generator: Adobe Illustrator 27.3.1, SVG Export Plug-In . SVG Version: 6.00 Build 0)  -->
<svg version="1.1" id="Ebene_1" xmlns="http://www.w3.org/2000/svg" xmlns:xlink="http://www.w3.org/1999/xlink" x="0px" y="0px"
	 viewBox="0 0 729.7 132" style="enable-background:new 0 0 729.7 132;" xml:space="preserve">
<style type="text/css">
	.st0{clip-path:url(#SVGID_00000165212025033197489530000014463331372685881238_);fill:#D2FF00;}
</style>
<g>
	<g>
		<g>
			<g>
				<g>
					<g>
						<defs>
							<rect id="SVGID_1_" width="515" height="132"/>
						</defs>
						<clipPath id="SVGID_00000124132253275476045150000008781389868017342605_">
							<use xlink:href="#SVGID_1_"  style="overflow:visible;"/>
						</clipPath>
						<path style="clip-path:url(#SVGID_00000124132253275476045150000008781389868017342605_);fill:#D2FF00;" d="M424.8,129.7H515
							v-18.8h-67.8V73.5h64.2V55h-64.2V20.9H515V2.3h-90.2V129.7z M345,129.7l32.3-103.2v103.2h21.8V2.3h-34.6l-30.8,101.6
							L302.8,2.3h-34.6v127.4H290V26.5l32.3,103.2H345z M149,65.9c0-15,3.5-26.7,10.6-35.1s16.1-12.6,27.2-12.6
							c11,0,20.1,4.2,27.2,12.6c7.1,8.4,10.6,20.1,10.6,35.1s-3.5,26.7-10.6,35.2c-7.1,8.4-16.1,12.7-27.2,12.7
							c-11,0-20.1-4.2-27.2-12.7C152.6,92.6,149,80.9,149,65.9 M247.7,65.9c0-19.8-5.5-35.7-16.5-47.8C220.1,6,205.3,0,186.8,0
							s-33.3,6-44.3,18.1S126,46.1,126,65.9s5.5,35.8,16.5,47.9s25.8,18.2,44.3,18.2s33.3-6.1,44.3-18.2S247.7,85.7,247.7,65.9
							 M83.1,2.3V55H22.3V2.3H0v127.4h22.3V73.5h60.8v56.2h22.3V2.3H83.1z"/>
					</g>
				</g>
			</g>
		</g>
	</g>
</g>
</svg>
