<?xml version="1.0" encoding="utf-8"?>
<!-- Generator: Adobe Illustrator 27.3.1, SVG Export Plug-In . SVG Version: 6.00 Build 0)  -->
<svg version="1.1" id="Ebene_1" xmlns="http://www.w3.org/2000/svg" xmlns:xlink="http://www.w3.org/1999/xlink" x="0px" y="0px"
	 viewBox="0 0 1380.6 132" style="enable-background:new 0 0 1380.6 132;" xml:space="preserve">
<style type="text/css">
	.st0{clip-path:url(#SVGID_00000104704785410559552000000017765051244487776394_);fill:#D2FF00;}
</style>
<g>
	<g>
		<g>
			<g>
				<defs>
					<rect id="SVGID_1_" width="729.7" height="132"/>
				</defs>
				<clipPath id="SVGID_00000170989082639310389820000012663650021053866127_">
					<use xlink:href="#SVGID_1_"  style="overflow:visible;"/>
				</clipPath>
				<path style="clip-path:url(#SVGID_00000170989082639310389820000012663650021053866127_);fill:#D2FF00;" d="M665.1,132h23.1
					V19.3h41.5V0H623.6v19.3h41.5V132z M609.4,132V0H587v105.4L531.1,0h-31v132h22.4V26.6L578.4,132H609.4z M473.6,0h-23.1v132h23.1
					V0z M372.1,18.6c10.6,0,18.5,1.3,23.9,3.9c5.3,2.6,8,7.9,8,15.7c0,7.5-2.5,12.7-7.6,15.6s-12.9,4.3-23.5,4.3H350V18.6H372.1z
					 M407.1,132h26l-30.2-59.9c16.5-5.7,24.8-17.1,24.8-34c0-14.2-4.7-24.1-14.1-29.7C404.2,2.8,389.3,0,368.9,0h-42.1v132h23.1
					V76.5h22.4c3.2,0,5.5-0.1,6.9-0.2L407.1,132z M255.4,18.6c4.9,0,8.9,0.2,12,0.6c3.2,0.4,6.4,1.4,9.8,2.8
					c3.4,1.5,5.9,3.8,7.6,7.1s2.5,7.5,2.5,12.6c0,8.6-2.6,14.4-7.8,17.2c-5.2,2.9-12.9,4.3-23.1,4.3H235V18.6H255.4z M211.9,0v132
					H235V82.1h20.8c8.4,0,15.7-0.6,21.9-1.7c6.2-1.2,12-3.2,17.4-6c5.3-2.8,9.4-7,12.2-12.6c2.8-5.5,4.2-12.3,4.2-20.3
					c0-7.2-1.1-13.3-3.2-18.5s-4.8-9.2-8.1-12.1C297,8,292.7,5.7,287.6,4c-5.2-1.7-10.2-2.8-15-3.3C267.7,0.2,262,0,255.4,0H211.9z
					 M129.3,132l33.5-106.9V132h22.6V0h-35.9l-31.9,105.2L85.6,0H49.7v132h22.6V25.1L105.8,132H129.3z M23.1,0H0v132h23.1V0z"/>
			</g>
		</g>
	</g>
</g>
</svg>
