<?xml version="1.0" encoding="utf-8"?>
<!-- Generator: Adobe Illustrator 27.3.1, SVG Export Plug-In . SVG Version: 6.00 Build 0)  -->
<svg version="1.1" id="Ebene_1" xmlns="http://www.w3.org/2000/svg" xmlns:xlink="http://www.w3.org/1999/xlink" x="0px" y="0px"
	 viewBox="0 0 818.89 132" style="enable-background:new 0 0 818.89 132;" xml:space="preserve">
<style type="text/css">
	.st0{clip-path:url(#SVGID_00000090282930618834164200000000177175072306109853_);fill:#788278;}
</style>
<g>
	<defs>
		<rect id="SVGID_1_" width="549.08" height="132"/>
	</defs>
	<clipPath id="SVGID_00000038406038116282747860000005412652673094140833_">
		<use xlink:href="#SVGID_1_"  style="overflow:visible;"/>
	</clipPath>
	<path style="clip-path:url(#SVGID_00000038406038116282747860000005412652673094140833_);fill:#788278;" d="M484.93,2.28h-22.32
		v127.43h86.48v-18.81h-64.15V2.28z M389.31,28.12l19.33,54.66h-38.49L389.31,28.12z M330.96,129.71h22.85l9.84-28.3h51.68
		l10.02,28.3h24.43L401.97,2.28h-23.55L330.96,129.71z M299.5,11.25C290.01,3.75,278.12,0,263.82,0c-18.75,0-33.63,5.95-44.65,17.84
		c-11.01,11.89-16.52,27.8-16.52,47.72c0,20.15,5.19,36.27,15.56,48.33c10.37,12.07,24.52,18.1,42.45,18.1
		c18.16,0,31.17-5.86,39.02-17.58l0.7,15.29h17.58V63.1H264.7v18.81h32.52v2.46c0,5.39-1.05,10.08-3.16,14.06
		c-2.11,3.99-4.89,7.03-8.35,9.14c-3.46,2.11-7.06,3.66-10.81,4.66c-3.75,1-7.68,1.49-11.78,1.49c-11.49,0-20.6-4.22-27.33-12.65
		c-6.74-8.44-10.11-20.27-10.11-35.5c0-15.12,3.46-26.77,10.37-34.98c6.91-8.2,15.99-12.3,27.24-12.3c8.44,0,15.52,2.11,21.27,6.33
		c5.74,4.22,9.67,10.25,11.78,18.1h21.27C315.03,29.24,308.99,18.75,299.5,11.25 M99.31,129.71h90.17v-18.81h-67.85V73.47h64.15
		V55.01h-64.15v-34.1h67.85V2.28H99.31V129.71z M22.32,2.28H0v127.43h86.48v-18.81H22.32V2.28z"/>
</g>
</svg>
