<?xml version="1.0" encoding="utf-8"?>
<!-- Generator: Adobe Illustrator 27.3.1, SVG Export Plug-In . SVG Version: 6.00 Build 0)  -->
<svg version="1.1" id="Ebene_1" xmlns="http://www.w3.org/2000/svg" xmlns:xlink="http://www.w3.org/1999/xlink" x="0px" y="0px"
	 viewBox="0 0 729.7 132" style="enable-background:new 0 0 729.7 132;" xml:space="preserve">
<style type="text/css">
	.st0{clip-path:url(#SVGID_00000025409704299980298670000007496843804787539619_);fill:#D2FF00;}
</style>
<g>
	<g>
		<defs>
			<rect id="SVGID_1_" width="710.4" height="132"/>
		</defs>
		<clipPath id="SVGID_00000173877413160454050740000015754595162374246057_">
			<use xlink:href="#SVGID_1_"  style="overflow:visible;"/>
		</clipPath>
		<path style="clip-path:url(#SVGID_00000173877413160454050740000015754595162374246057_);fill:#D2FF00;" d="M595.7,2.3l45.5,77.9
			v49.6h22.3V80.5l46.9-78.2h-25.1l-32.5,56.9L621.2,2.3H595.7z M575.3,87.4c-1.9,8.6-5.7,15.1-11.5,19.6s-13.1,6.8-21.9,6.8
			c-10.5,0-19.2-4.3-25.9-12.8c-6.7-8.6-10.1-20.3-10.1-35.3c0-14.9,3.4-26.5,10.2-34.8s15.5-12.5,26-12.5c8.4,0,15.6,2.3,21.4,6.9
			c5.8,4.6,9.6,11.1,11.5,19.5h21.4c-2.6-14.2-8.6-25.2-18-33C568.9,3.9,557.1,0,542.8,0c-18.4,0-33,5.9-43.8,17.8
			c-10.8,11.8-16.2,27.8-16.2,47.8c0,20.2,5.2,36.3,15.6,48.3c10.4,12.1,24.8,18.1,43.2,18.1c14.8,0,27-3.9,36.6-11.7
			c9.7-7.8,15.8-18.8,18.4-33L575.3,87.4L575.3,87.4z M421.7,28.1L441,82.8h-38.5L421.7,28.1z M363.3,129.7h22.8l9.8-28.3h51.7
			l10,28.3H482L434.3,2.3h-23.6L363.3,129.7z M265.6,2.3l44.1,127.4h23.9L377.2,2.3h-23.6l-31.5,101.1L289.8,2.3H265.6z M252.6,2.3
			h-22.3v127.4h22.3V2.3z M154.7,20.2c10.2,0,17.9,1.3,23,3.8c5.2,2.5,7.7,7.6,7.7,15.2c0,7.3-2.5,12.3-7.4,15
			c-4.9,2.8-12.5,4.1-22.7,4.1h-22.1V20.2H154.7z M188.4,129.7h25.1l-29.2-57.8c15.9-5.5,23.9-16.5,23.9-32.9
			c0-13.7-4.5-23.3-13.6-28.7s-23.5-8.1-43.2-8.1h-40.6v127.4h22.3V76.1h21.6c3,0,5.3-0.1,6.7-0.2L188.4,129.7z M42,20.2
			c4.7,0,8.6,0.2,11.6,0.6s6.2,1.3,9.5,2.7c3.3,1.4,5.7,3.7,7.4,6.9c1.6,3.2,2.5,7.2,2.5,12.1c0,8.3-2.5,13.9-7.6,16.6
			c-5,2.8-12.5,4.1-22.3,4.1H22.3v-43H42z M0,2.3v127.4h22.3V81.6h20c8.1,0,15.1-0.6,21.2-1.7c6-1.1,11.6-3,16.8-5.8
			c5.2-2.8,9.1-6.8,11.8-12.1c2.7-5.3,4-11.9,4-19.6c0-6.9-1-12.9-3.1-17.8c-2.1-5-4.7-8.9-7.8-11.7C82.1,10,78,7.8,73,6.2
			C68,4.5,63.2,3.5,58.5,3S48.3,2.3,42,2.3H0z"/>
	</g>
</g>
</svg>
