<?xml version="1.0" encoding="utf-8"?>
<!-- Generator: Adobe Illustrator 27.3.1, SVG Export Plug-In . SVG Version: 6.00 Build 0)  -->
<svg version="1.1" id="Ebene_1" xmlns="http://www.w3.org/2000/svg" xmlns:xlink="http://www.w3.org/1999/xlink" x="0px" y="0px"
	 viewBox="0 0 1380.6 132" style="enable-background:new 0 0 1380.6 132;" xml:space="preserve">
<style type="text/css">
	.st0{clip-path:url(#SVGID_00000022559183142438934920000004505929341360961205_);fill:#D2FF00;}
</style>
<g>
	<g>
		<g>
			<defs>
				<rect id="SVGID_1_" width="1380.6" height="132"/>
			</defs>
			<clipPath id="SVGID_00000160903139306979992180000007494093123024588477_">
				<use xlink:href="#SVGID_1_"  style="overflow:visible;"/>
			</clipPath>
			<path style="clip-path:url(#SVGID_00000160903139306979992180000007494093123024588477_);fill:#D2FF00;" d="M1265.9,2.3
				l45.5,77.9v49.6h22.3V80.5l46.9-78.2h-25.1L1323,59.2l-31.6-56.9C1291.4,2.3,1265.9,2.3,1265.9,2.3z M1245.5,87.4
				c-1.9,8.6-5.7,15.1-11.5,19.6s-13.1,6.8-21.9,6.8c-10.5,0-19.2-4.3-25.9-12.8c-6.7-8.6-10.1-20.3-10.1-35.3
				c0-14.9,3.4-26.5,10.2-34.8c6.8-8.3,15.5-12.5,26-12.5c8.4,0,15.6,2.3,21.4,6.9s9.6,11.1,11.5,19.5h21.4
				c-2.6-14.2-8.6-25.2-18-33C1239.1,3.9,1227.2,0,1213,0c-18.4,0-33,5.9-43.8,17.8c-10.8,11.8-16.2,27.8-16.2,47.8
				c0,20.2,5.2,36.3,15.6,48.3c10.4,12.1,24.8,18.1,43.2,18.1c14.8,0,27-3.9,36.6-11.7c9.7-7.8,15.8-18.8,18.4-33L1245.5,87.4
				L1245.5,87.4z M1132.5,2.3h-22.3v127.4h22.3V2.3z M1033.1,2.3h-22.3v127.4h86.5v-18.8h-64.2L1033.1,2.3L1033.1,2.3z M891.7,65.9
				c0-15,3.5-26.7,10.6-35.1s16.1-12.6,27.2-12.6c11,0,20.1,4.2,27.2,12.6c7.1,8.4,10.6,20.1,10.6,35.1s-3.5,26.7-10.6,35.2
				c-7.1,8.4-16.1,12.7-27.2,12.7c-11,0-20.1-4.2-27.2-12.7C895.2,92.6,891.7,80.9,891.7,65.9 M990.3,65.9
				c0-19.8-5.5-35.7-16.5-47.8C962.7,6,948,0,929.4,0c-18.5,0-33.3,6-44.3,18.1s-16.5,28-16.5,47.8s5.5,35.8,16.5,47.9
				s25.8,18.2,44.3,18.2s33.3-6.1,44.3-18.2C984.8,101.7,990.3,85.7,990.3,65.9 M804.8,20.2c4.7,0,8.6,0.2,11.6,0.6s6.2,1.3,9.5,2.7
				c3.3,1.4,5.7,3.7,7.4,6.9c1.6,3.2,2.5,7.2,2.5,12.1c0,8.3-2.5,13.9-7.6,16.6c-5,2.8-12.5,4.1-22.3,4.1h-20.7v-43
				C785.2,20.2,804.8,20.2,804.8,20.2z M762.8,2.3v127.4h22.3V81.6h20c8.1,0,15.1-0.6,21.2-1.7c6-1.1,11.6-3,16.8-5.8
				s9.1-6.8,11.8-12.1s4-11.9,4-19.6c0-6.9-1-12.9-3.1-17.8c-2.1-5-4.7-8.9-7.8-11.7c-3.2-2.8-7.2-5-12.2-6.7
				c-5-1.6-9.8-2.7-14.5-3.2s-10.2-0.7-16.5-0.7C804.8,2.3,762.8,2.3,762.8,2.3z M595.7,2.3l45.5,77.9v49.6h22.3V80.5l46.9-78.2
				h-25.1l-32.5,56.9L621.2,2.3H595.7z M575.3,87.4c-1.9,8.6-5.7,15.1-11.5,19.6s-13.1,6.8-21.9,6.8c-10.5,0-19.2-4.3-25.9-12.8
				c-6.7-8.6-10.1-20.3-10.1-35.3c0-14.9,3.4-26.5,10.2-34.8s15.5-12.5,26-12.5c8.4,0,15.6,2.3,21.4,6.9c5.8,4.6,9.6,11.1,11.5,19.5
				h21.4c-2.6-14.2-8.6-25.2-18-33C568.9,3.9,557.1,0,542.8,0c-18.4,0-33,5.9-43.8,17.8c-10.8,11.8-16.2,27.8-16.2,47.8
				c0,20.2,5.2,36.3,15.6,48.3c10.4,12.1,24.8,18.1,43.2,18.1c14.8,0,27-3.9,36.6-11.7c9.7-7.8,15.8-18.8,18.4-33L575.3,87.4
				L575.3,87.4z M421.7,28.1L441,82.8h-38.5L421.7,28.1z M363.3,129.7h22.8l9.8-28.3h51.7l10,28.3H482L434.3,2.3h-23.6L363.3,129.7z
				 M265.6,2.3l44.1,127.4h23.9L377.2,2.3h-23.6l-31.5,101.1L289.8,2.3H265.6z M252.6,2.3h-22.3v127.4h22.3V2.3z M154.7,20.2
				c10.2,0,17.9,1.3,23,3.8c5.2,2.5,7.7,7.6,7.7,15.2c0,7.3-2.5,12.3-7.4,15c-4.9,2.8-12.5,4.1-22.7,4.1h-22.1V20.2H154.7z
				 M188.4,129.7h25.1l-29.2-57.8c15.9-5.5,23.9-16.5,23.9-32.9c0-13.7-4.5-23.3-13.6-28.7s-23.5-8.1-43.2-8.1h-40.6v127.4h22.3
				V76.1h21.6c3,0,5.3-0.1,6.7-0.2L188.4,129.7z M42,20.2c4.7,0,8.6,0.2,11.6,0.6s6.2,1.3,9.5,2.7c3.3,1.4,5.7,3.7,7.4,6.9
				c1.6,3.2,2.5,7.2,2.5,12.1c0,8.3-2.5,13.9-7.6,16.6c-5,2.8-12.5,4.1-22.3,4.1H22.3v-43C22.3,20.2,42,20.2,42,20.2z M0,2.3v127.4
				h22.3V81.6h20c8.1,0,15.1-0.6,21.2-1.7c6-1.1,11.6-3,16.8-5.8c5.2-2.8,9.1-6.8,11.8-12.1c2.7-5.3,4-11.9,4-19.6
				c0-6.9-1-12.9-3.1-17.8c-2.1-5-4.7-8.9-7.8-11.7C82.1,10,78,7.8,73,6.2C68,4.5,63.2,3.5,58.5,3S48.3,2.3,42,2.3H0z"/>
		</g>
	</g>
</g>
</svg>
