<?xml version="1.0" encoding="utf-8"?>
<!-- Generator: Adobe Illustrator 27.3.1, SVG Export Plug-In . SVG Version: 6.00 Build 0)  -->
<svg version="1.1" id="Ebene_1" xmlns="http://www.w3.org/2000/svg" xmlns:xlink="http://www.w3.org/1999/xlink" x="0px" y="0px"
	 viewBox="0 0 697.3 132" style="enable-background:new 0 0 697.3 132;" xml:space="preserve">
<style type="text/css">
	.st0{fill:#D2FF00;}
</style>
<path class="st0" d="M624.8,105.8h-23.9v23.9h23.9V105.8z M582.7,105.8h-23.9v23.9h23.9V105.8z M540.5,105.8h-23.9v23.9h23.9V105.8z
	 M500.2,129.7V2.3h-21.6v101.8l-54-101.8h-29.9v127.4h21.6V27.9l54,101.8H500.2z M279.1,65.9c0-15,3.5-26.7,10.6-35.1
	s16.1-12.6,27.2-12.6c11,0,20.1,4.2,27.2,12.6s10.6,20.1,10.6,35.1s-3.5,26.7-10.6,35.1c-7.1,8.4-16.1,12.7-27.2,12.7
	s-20.1-4.2-27.2-12.7C282.7,92.6,279.1,80.9,279.1,65.9 M377.7,65.9c0-19.8-5.5-35.7-16.5-47.8C350.2,6,335.4,0,316.9,0
	c-18.5,0-33.3,6-44.3,18.1c-11,12.1-16.5,28-16.5,47.8s5.5,35.8,16.5,47.9c11,12.1,25.8,18.2,44.3,18.2c18.5,0,33.3-6.1,44.3-18.2
	C372.2,101.7,377.7,85.7,377.7,65.9 M141,65.9c0-15,3.5-26.7,10.6-35.1c7.1-8.4,16.1-12.6,27.2-12.6c11,0,20.1,4.2,27.2,12.6
	c7.1,8.4,10.6,20.1,10.6,35.1s-3.6,26.7-10.6,35.1c-7.1,8.4-16.1,12.7-27.2,12.7s-20.1-4.2-27.2-12.7C144.5,92.6,141,80.9,141,65.9
	 M239.6,65.9c0-19.8-5.5-35.7-16.5-47.8C212,6,197.3,0,178.8,0c-18.5,0-33.3,6-44.3,18.1c-11,12.1-16.5,28-16.5,47.8
	s5.5,35.8,16.5,47.9s25.8,18.2,44.3,18.2s33.3-6.1,44.3-18.2C234.1,101.7,239.6,85.7,239.6,65.9 M55.7,74.9
	c17.5,3.3,26.2,9.8,26.2,19.7c0,6-2.6,10.7-7.7,14.1c-5.2,3.4-11.7,5.1-19.5,5.1c-17.9,0-28.8-8.7-32.7-26.2H0
	c1.3,13.8,6.7,24.7,16.4,32.6C26,128,38.4,132,53.6,132c13.6,0,25.4-3.5,35.5-10.4s15.1-16.4,15.1-28.5c0-6.1-1.2-11.4-3.5-16
	C98.4,72.6,95,68.9,90.6,66c-4.4-2.9-8.9-5.1-13.5-6.7c-4.6-1.6-10.1-3-16.4-4.3L45,52c-12.7-2.5-19-8.1-19-16.9
	c0-5.6,2.6-9.8,7.7-12.6c5.2-2.8,10.7-4.2,16.7-4.2C67,18.3,76.8,24.9,80,38h21.6c-2.5-12.8-8.1-22.3-17-28.6
	C75.8,3.2,64.8,0,51.7,0C38.9,0,27.7,3.2,18,9.5S3.5,24.6,3.5,35.9c0,10.1,3.4,18.1,10.1,23.9c6.7,5.9,15.6,9.9,26.6,12.1L55.7,74.9
	z"/>
</svg>
