<?xml version="1.0" encoding="utf-8"?>
<!-- Generator: Adobe Illustrator 27.3.1, SVG Export Plug-In . SVG Version: 6.00 Build 0)  -->
<svg version="1.1" id="Ebene_1" xmlns="http://www.w3.org/2000/svg" xmlns:xlink="http://www.w3.org/1999/xlink" x="0px" y="0px"
	 viewBox="0 0 967.34 619.94" style="enable-background:new 0 0 967.34 619.94;" xml:space="preserve">
<style type="text/css">
	.st0{fill:#D2FF00;}
</style>
<path class="st0" d="M964.82,178C980.76,81.48,921.43,0,775.29,0H511.02h-0.53H21.26L0,119.56h177.12L88.57,619.94h135.5
	l88.57-500.38h68.64h324.28h50.25c50.47,0,74.38,23.91,67.3,65.54c-6.2,38.08-28.34,62.87-77.94,62.87H602.6H466.56l-65.89,371.97
	H719.5c132.84,0,199.27-58.46,216.98-162.08c12.4-73.51-19.48-127.53-69.97-150.57C915.22,285.17,955.08,237.35,964.82,178
	 M799.2,433.96c-7.08,39.85-29.22,66.43-82.37,66.43H557.42l23.91-136.39h147.03C782.38,363.99,807.17,389.67,799.2,433.96"/>
</svg>
