<?xml version="1.0" encoding="utf-8"?>
<!-- Generator: Adobe Illustrator 27.3.1, SVG Export Plug-In . SVG Version: 6.00 Build 0)  -->
<svg version="1.1" xmlns="http://www.w3.org/2000/svg" xmlns:xlink="http://www.w3.org/1999/xlink" x="0px" y="0px"
	 viewBox="0 0 1450.65 1450.65" style="enable-background:new 0 0 1450.65 1450.65;" xml:space="preserve">
<style type="text/css">
	.st0{fill:#D2FF00;}
</style>
<g id="BACKGROUND">
	<path class="st0" d="M725.08,1451.07c400.68,0,725.49-324.81,725.49-725.49S1125.77,0.07,725.08,0.07S-0.41,324.89-0.41,725.58
		S324.4,1451.07,725.08,1451.07"/>
</g>
<g id="LOGO">
	<path d="M1206.23,593.6c15.94-96.53-43.39-178-189.53-178H752.43h-0.53H262.68l-21.26,119.56h177.12l-88.55,500.38h135.5
		l88.57-500.38h68.64h324.28h50.25c50.47,0,74.38,23.91,67.3,65.53c-6.2,38.08-28.34,62.87-77.94,62.87H844.01H707.97l-65.89,371.97
		h318.83c132.84,0,199.27-58.46,216.98-162.08c12.4-73.51-19.48-127.53-69.97-150.57C1156.64,700.77,1196.49,652.95,1206.23,593.6
		 M1040.62,849.55c-7.08,39.85-29.22,66.43-82.37,66.43H798.83l23.91-136.39h147.03C1023.8,779.59,1048.59,805.27,1040.62,849.55"/>
</g>
</svg>
