<?xml version="1.0" encoding="utf-8"?>
<!-- Generator: Adobe Illustrator 27.3.1, SVG Export Plug-In . SVG Version: 6.00 Build 0)  -->
<svg version="1.1" id="Ebene_1" xmlns="http://www.w3.org/2000/svg" xmlns:xlink="http://www.w3.org/1999/xlink" x="0px" y="0px"
	 viewBox="0 0 1450.65 1450.65" style="enable-background:new 0 0 1450.65 1450.65;" xml:space="preserve">
<style type="text/css">
	.st0{fill:#D2FF00;}
</style>
<rect x="0" y="0" class="st0" width="1450.65" height="1450.65"/>
<g id="LOGO">
	<path d="M1233.87,461.37c15.94-96.53-43.39-178-189.53-178H780.07h-0.53H290.31l-21.26,119.56h177.12l-88.55,500.38h135.5
		l88.57-500.38h68.64h324.28h50.25c50.47,0,74.38,23.91,67.3,65.54c-6.2,38.08-28.34,62.87-77.94,62.87H871.65H735.6l-65.89,371.97
		h318.83c132.84,0,199.27-58.46,216.98-162.08c12.4-73.51-19.48-127.53-69.97-150.57C1184.27,568.54,1224.13,520.72,1233.87,461.37
		 M1068.25,717.33c-7.08,39.85-29.22,66.43-82.37,66.43H826.47l23.91-136.39h147.03C1051.43,647.36,1076.22,673.04,1068.25,717.33"
		/>
	<path d="M720.16,1150.5h-16.28v73.64h16.28v-39.15c0-15.22,5.7-22.84,17.11-22.84c2.37,0,4.45,0.38,6.23,1.16
		c1.78,0.78,3.14,1.74,4.11,2.88c0.95,1.14,1.71,2.62,2.25,4.45c0.56,1.83,0.91,3.58,1.1,5.27c0.18,1.7,0.28,3.67,0.28,5.95v42.3
		h16.28v-46.26c0-19.35-8.35-29.02-25.04-29.02c-10.5,0-17.93,3.96-22.32,11.9V1150.5z M669.78,1167.95
		c3.51,4.07,5.27,10.02,5.27,17.87c0,7.93-1.75,13.95-5.27,18.06c-3.52,4.11-8.1,6.16-13.76,6.16c-5.47,0-9.95-2.19-13.41-6.57
		c-3.47-4.39-5.21-10.27-5.21-17.65c0-7.31,1.74-13.12,5.21-17.46c3.47-4.33,7.94-6.49,13.41-6.49
		C661.67,1161.87,666.25,1163.9,669.78,1167.95 M674.35,1160.36c-4.65-7.66-11.95-11.5-21.89-11.5c-9.04,0-16.63,3.38-22.8,10.12
		c-6.16,6.76-9.23,15.69-9.23,26.84c0,11.13,3.07,20.09,9.23,26.88c6.17,6.8,13.76,10.21,22.8,10.21c9.95,0,17.24-3.83,21.89-11.5
		v8.61c0,5.48-1.23,9.62-3.7,12.46c-3.01,3.55-7.88,5.34-14.64,5.34c-4.84,0-8.48-0.76-10.95-2.27c-2.46-1.51-4.05-3.99-4.78-7.46
		h-16.16c1.18,7.66,4.59,13.35,10.21,17.04c5.6,3.7,12.69,5.54,21.28,5.54c11.77,0,20.48-2.65,26.14-7.93
		c5.94-5.48,8.91-14.14,8.91-26v-66.25h-16.29v9.87H674.35z M594.97,1224.14h16.29v-73.64h-16.29V1224.14z M594.97,1141.33h16.29
		v-16.42h-16.29V1141.33z M584.59,1170.63c-1.46-7.03-5.02-12.42-10.68-16.16c-5.66-3.73-12.27-5.6-19.85-5.6
		c-8.31,0-15.37,1.97-21.22,5.95c-5.84,3.96-8.75,9.1-8.75,15.4c0,11.41,7.39,18.56,22.17,21.48l11.09,2.19
		c8.48,1.64,12.72,5.02,12.72,10.12c0,2.93-1.37,5.25-4.11,6.99c-2.73,1.73-6.29,2.59-10.68,2.59c-9.49,0-15.01-3.96-16.56-11.9
		h-15.88c0.92,7.12,4.24,12.93,9.99,17.45c5.76,4.52,13.06,6.79,21.91,6.79c8.76,0,16.15-2.12,22.17-6.38
		c6.03-4.24,9.04-10.05,9.04-17.45c0-3.47-0.64-6.48-1.92-9.02c-1.29-2.56-3.2-4.67-5.75-6.3c-2.56-1.64-5.28-2.94-8.15-3.9
		c-2.88-0.95-6.36-1.84-10.47-2.66l-10.4-2.06c-6.58-1.27-9.86-4.18-9.86-8.75c0-2.38,1.35-4.31,4.04-5.82
		c2.69-1.51,5.91-2.27,9.65-2.27c9.11,0,14.51,3.12,16.15,9.32L584.59,1170.63L584.59,1170.63z M470.13,1166.04
		c3.93-2.95,8.18-4.45,12.74-4.45c5.02,0,9.35,1.7,13,5.06c3.64,3.38,5.56,7.85,5.75,13.41h-38.33
		C463.93,1173.69,466.21,1169.01,470.13,1166.04 M518.17,1191.98c0.73-12.5-2.16-22.82-8.69-30.93
		c-6.52-8.13-15.4-12.18-26.62-12.18c-10.5,0-19.14,3.55-25.94,10.68c-6.8,7.11-10.19,16.19-10.19,27.23s3.35,20.33,10.06,27.85
		c6.7,7.53,15.77,11.31,27.17,11.31c8.85,0,16.15-2.33,21.89-6.99c5.75-4.65,9.58-10.27,11.5-16.83h-16.01
		c-2.93,6.84-8.94,10.27-18.06,10.27c-5.02,0-9.48-1.78-13.35-5.34c-3.88-3.55-6.08-8.57-6.64-15.05h54.88V1191.98z M398.01,1140.11
		c3.98,0.82,7.93,2.4,11.85,4.72c3.92,2.33,6.93,5.97,9.04,10.94c2.09,4.97,3.14,11.2,3.14,18.69c0,7.47-1.05,13.73-3.14,18.75
		c-2.11,5.02-5.12,8.69-9.04,11.01c-3.92,2.33-7.87,3.9-11.85,4.72c-3.96,0.82-8.69,1.23-14.16,1.23h-8.89v-71.3h8.89
		C389.33,1138.88,394.05,1139.29,398.01,1140.11 M357.58,1124.91v99.23h27.1c8.31,0,15.65-0.8,22.04-2.4
		c6.38-1.59,12.18-4.21,17.37-7.87c5.21-3.64,9.17-8.78,11.9-15.4c2.75-6.61,4.11-14.63,4.11-24.01c0-9.4-1.36-17.4-4.11-24.03
		c-2.73-6.61-6.7-11.71-11.9-15.33c-5.19-3.6-11-6.2-17.37-7.8c-6.39-1.59-13.73-2.4-22.04-2.4h-27.1V1124.91z"/>
	<path d="M1087.43,1029.17c3.92-2.95,8.16-4.45,12.72-4.45c5.02,0,9.35,1.7,13,5.06c3.66,3.38,5.57,7.85,5.75,13.41h-38.32
		C1081.21,1036.82,1083.49,1032.14,1087.43,1029.17 M1135.47,1055.11c0.72-12.5-2.18-22.82-8.7-30.93
		c-6.52-8.13-15.4-12.18-26.62-12.18c-10.49,0-19.14,3.55-25.93,10.68c-6.8,7.11-10.21,16.19-10.21,27.23s3.36,20.33,10.06,27.85
		c6.71,7.53,15.77,11.31,27.17,11.31c8.85,0,16.15-2.33,21.89-6.99c5.75-4.65,9.58-10.27,11.5-16.83h-16.01
		c-2.91,6.84-8.94,10.27-18.06,10.27c-5.02,0-9.46-1.78-13.34-5.34c-3.89-3.55-6.1-8.57-6.64-15.05h54.89V1055.11z M1048.11,1019.38
		c-6.2-4.93-13.41-7.39-21.63-7.39c-10.76,0-19.48,3.64-26.13,10.94c-6.67,7.31-9.99,16.53-9.99,27.66s3.26,20.33,9.78,27.58
		s15.08,10.88,25.67,10.88c8.2,0,15.58-2.43,22.1-7.25c6.52-4.84,10.56-11.41,12.11-19.71h-15.87c-1.01,4.56-3.17,7.94-6.51,10.14
		c-3.33,2.18-7.18,3.28-11.57,3.28c-5.29,0-9.75-2.12-13.41-6.36c-3.64-4.24-5.47-10.47-5.47-18.69c0-8.2,1.84-14.41,5.54-18.6
		c3.69-4.2,8.28-6.3,13.75-6.3c4.39,0,8.15,1.23,11.29,3.7c3.16,2.46,5.09,5.66,5.82,9.58h15.88
		C1058.1,1030.79,1054.31,1024.31,1048.11,1019.38 M935.11,1013.64h-16.29v73.64h16.29v-39.15c0-15.22,5.7-22.84,17.11-22.84
		c2.37,0,4.45,0.38,6.22,1.16c1.78,0.78,3.16,1.74,4.11,2.88c0.97,1.14,1.71,2.62,2.27,4.45c0.54,1.83,0.91,3.58,1.08,5.27
		c0.19,1.7,0.28,3.67,0.28,5.95v42.3h16.29v-46.26c0-19.35-8.35-29.02-25.05-29.02c-10.49,0-17.93,3.96-22.3,11.9v-10.28H935.11z
		 M890.72,1058.26c0,6.11-1.67,10.75-5,13.89c-3.32,3.14-8.04,4.72-14.16,4.72c-4.11,0-7.4-0.92-9.86-2.73
		c-2.47-1.83-3.7-4.34-3.7-7.53c0-4.11,2.47-7.2,7.4-9.24c4.91-2.05,13.37-3.63,25.32-4.72L890.72,1058.26L890.72,1058.26z
		 M848.35,1083.03c5.07,4.01,11.61,6.03,19.64,6.03c11.6,0,19.67-3.93,24.23-11.77c0.09,2,0.54,5.34,1.36,9.99h14.92
		c-1.45-6.57-2.18-14.96-2.18-25.18c0-2.46,0.04-6,0.13-10.6c0.09-4.61,0.15-7.41,0.15-8.42c0.18-11.13-2.56-19.19-8.22-24.16
		s-13.28-7.46-22.86-7.46c-8.85,0-16.15,2.33-21.89,6.99c-5.75,4.65-8.91,10.76-9.45,18.34h16.01c0.18-4.3,1.62-7.58,4.31-9.86
		s6.17-3.42,10.47-3.42c4.56,0,8.25,1.27,11.09,3.83c2.82,2.56,4.24,6.76,4.24,12.59v1.36c-6.03,0.64-11.23,1.3-15.6,1.99
		c-4.39,0.69-8.83,1.67-13.34,2.94c-4.52,1.29-8.2,2.81-11.03,4.59c-2.82,1.78-5.13,4.04-6.9,6.77c-1.78,2.73-2.68,5.89-2.68,9.45
		C840.76,1073.67,843.29,1079.01,848.35,1083.03 M741.97,1048.12c0-15.22,5.38-22.84,16.15-22.84c2.92,0,5.29,0.51,7.12,1.56
		s3.14,2.6,3.96,4.65c0.83,2.06,1.35,4.07,1.58,6.03c0.23,1.96,0.34,4.45,0.34,7.46v42.3h16.29v-39.15
		c0-15.22,5.38-22.84,16.15-22.84c2.92,0,5.29,0.51,7.12,1.56s3.14,2.6,3.96,4.65c0.83,2.06,1.35,4.07,1.58,6.03
		c0.23,1.96,0.34,4.45,0.34,7.46v42.3h16.29v-46.26c0-19.35-8.03-29.02-24.09-29.02c-10.12,0-18.12,4.33-23.96,13
		c-3.64-8.67-10.81-13-21.48-13c-9.86,0-16.97,3.96-21.35,11.9v-10.27h-16.29v73.64h16.29L741.97,1048.12L741.97,1048.12z
		 M720,1013.77c-1.64-0.18-3.06-0.26-4.24-0.26c-9.13,0.18-15.78,4.61-19.98,13.26v-13.13h-16.01v73.64h16.28v-38.6
		c0-7.03,1.33-11.93,3.98-14.71c2.65-2.78,6.7-4.18,12.18-4.18c2.46,0,5.06,0.15,7.8,0.41v-16.43H720z M615.15,1050.59
		c0-8.12,1.86-14.38,5.6-18.75c3.74-4.39,8.35-6.57,13.84-6.57c5.47,0,10.08,2.18,13.82,6.57c3.74,4.37,5.6,10.63,5.6,18.75
		c0,8.03-1.86,14.23-5.6,18.62c-3.74,4.37-8.35,6.57-13.82,6.57c-5.48,0-10.09-2.19-13.84-6.57
		C617.01,1064.82,615.15,1058.62,615.15,1050.59 M634.59,1012c-9.86,0-18.37,3.33-25.54,9.99c-7.17,6.65-10.73,16.19-10.73,28.61
		c0,12.4,3.57,21.92,10.73,28.53c7.17,6.63,15.68,9.93,25.54,9.93c9.84,0,18.35-3.31,25.52-9.93c7.17-6.61,10.75-16.13,10.75-28.53
		c0-12.42-3.58-21.95-10.75-28.61C652.94,1015.33,644.43,1012,634.59,1012 M567.08,1013.64h-10.27v11.77h10.27v61.86h16.29v-61.86
		h14.51v-11.77h-14.51v-3.96c0-3.83,0.61-6.32,1.84-7.46c1.23-1.14,3.9-1.71,8-1.71h4.67v-12.46h-6.44c-9.21,0-15.59,1.42-19.1,4.24
		c-3.51,2.84-5.27,8.44-5.27,16.83v4.52H567.08z M554.77,1013.77c-1.65-0.18-3.06-0.26-4.24-0.26c-9.13,0.18-15.8,4.61-19.99,13.26
		v-13.13h-16.01v73.64h16.29v-38.6c0-7.03,1.32-11.93,3.96-14.71c2.65-2.78,6.71-4.18,12.18-4.18c2.47,0,5.07,0.15,7.81,0.41
		V1013.77z M457.74,1029.17c3.93-2.95,8.18-4.45,12.74-4.45c5.02,0,9.35,1.7,13,5.06c3.64,3.38,5.56,7.85,5.75,13.41h-38.32
		C451.54,1036.82,453.82,1032.14,457.74,1029.17 M505.79,1055.11c0.73-12.5-2.16-22.82-8.69-30.93
		c-6.52-8.13-15.4-12.18-26.62-12.18c-10.5,0-19.14,3.55-25.94,10.68c-6.79,7.11-10.19,16.19-10.19,27.23s3.35,20.33,10.06,27.85
		c6.71,7.53,15.77,11.31,27.17,11.31c8.85,0,16.15-2.33,21.89-6.99c5.75-4.65,9.58-10.27,11.5-16.83h-16.01
		c-2.93,6.84-8.94,10.27-18.06,10.27c-5.02,0-9.46-1.78-13.35-5.34c-3.88-3.55-6.08-8.57-6.63-15.05h54.87V1055.11z M390.29,1002.01
		c3.64,0,6.65,0.16,9.02,0.47c2.37,0.32,4.84,1.04,7.4,2.12c2.54,1.1,4.46,2.88,5.75,5.34c1.27,2.47,1.92,5.62,1.92,9.45
		c0,6.48-1.96,10.79-5.89,12.93c-3.92,2.15-9.71,3.22-17.37,3.22h-16.15v-33.52h15.32V1002.01z M357.58,988.04v99.23h17.39v-37.5
		h15.59c6.3,0,11.8-0.44,16.5-1.3c4.69-0.86,9.05-2.37,13.07-4.52c4.01-2.15,7.06-5.29,9.17-9.45c2.09-4.15,3.14-9.23,3.14-15.25
		c0-5.38-0.8-10.02-2.4-13.89c-1.59-3.88-3.63-6.92-6.08-9.1c-2.47-2.19-5.63-3.93-9.52-5.21c-3.88-1.27-7.63-2.11-11.29-2.47
		c-3.64-0.35-7.93-0.54-12.86-0.54L357.58,988.04L357.58,988.04z"/>
</g>
</svg>
