<?xml version="1.0" encoding="utf-8"?>
<!-- Generator: Adobe Illustrator 27.3.1, SVG Export Plug-In . SVG Version: 6.00 Build 0)  -->
<svg version="1.1" id="Ebene_1" xmlns="http://www.w3.org/2000/svg" xmlns:xlink="http://www.w3.org/1999/xlink" x="0px" y="0px"
	 viewBox="0 0 585.2 132" style="enable-background:new 0 0 585.2 132;" xml:space="preserve">
<style type="text/css">
	.st0{clip-path:url(#SVGID_00000079461691892801966860000001704532981809391747_);fill:#D2FF00;}
</style>
<g>
	<defs>
		<rect id="SVGID_1_" width="585.2" height="132"/>
	</defs>
	<clipPath id="SVGID_00000107565755445753492080000006045621250365102758_">
		<use xlink:href="#SVGID_1_"  style="overflow:visible;"/>
	</clipPath>
	<path style="clip-path:url(#SVGID_00000107565755445753492080000006045621250365102758_);fill:#D2FF00;" d="M491.8,132h93.4v-19.5
		h-70.3V73.7h66.5V54.6h-66.5V19.3h70.3V0h-93.4V132z M413.5,18.6c10.6,0,18.5,1.3,23.9,3.9c5.3,2.6,8,7.9,8,15.7
		c0,7.5-2.5,12.7-7.6,15.6c-5.1,2.9-12.9,4.3-23.5,4.3h-22.9V18.6H413.5z M448.4,132h26l-30.2-59.9c16.5-5.7,24.8-17.1,24.8-34
		c0-14.2-4.7-24.1-14.1-29.7C445.5,2.8,430.6,0,410.2,0h-42.1v132h23.1V76.5h22.4c3.2,0,5.5-0.1,6.9-0.2L448.4,132z M256.2,132h93.4
		v-19.5h-70.3V73.7h66.5V54.6h-66.5V19.3h70.3V0h-93.4V132z M206.5,0v54.6h-63V0h-23.1v132h23.1V73.7h63V132h23.1V0H206.5z
		 M41.5,132h23.1V19.3h41.5V0H0v19.3h41.5V132z"/>
</g>
</svg>
